<svg width="66" height="66" viewBox="0 0 66 66" fill="none" xmlns="http://www.w3.org/2000/svg">
<path fill-rule="evenodd" clip-rule="evenodd" d="M0.32666 32.9999C0.32666 24.3343 3.76903 16.0237 9.8965 9.89625C16.024 3.76879 24.3346 0.326416 33.0001 0.326416C41.6657 0.326416 49.9763 3.76879 56.1038 9.89625C62.2312 16.0237 65.6736 24.3343 65.6736 32.9999C65.6736 41.6654 62.2312 49.976 56.1038 56.1035C49.9763 62.231 41.6657 65.6733 33.0001 65.6733C24.3346 65.6733 16.024 62.231 9.8965 56.1035C3.76903 49.976 0.32666 41.6654 0.32666 32.9999ZM33.0001 5.01308C25.5776 5.01308 18.459 7.96168 13.2105 13.2102C7.96193 18.4588 5.01333 25.5773 5.01333 32.9999C5.01333 40.4224 7.96193 47.541 13.2105 52.7895C18.459 58.0381 25.5776 60.9867 33.0001 60.9867C40.4227 60.9867 47.5412 58.0381 52.7898 52.7895C58.0383 47.541 60.9869 40.4224 60.9869 32.9999C60.9869 25.5773 58.0383 18.4588 52.7898 13.2102C47.5412 7.96168 40.4227 5.01308 33.0001 5.01308ZM44.6132 21.3917C45.0756 21.8543 45.3354 22.4816 45.3354 23.1357C45.3354 23.7898 45.0756 24.417 44.6132 24.8796L36.488 32.9999L44.6132 41.1201C45.0764 41.5833 45.3366 42.2115 45.3366 42.8665C45.3366 43.5216 45.0764 44.1498 44.6132 44.6129C44.15 45.0761 43.5218 45.3363 42.8668 45.3363C42.2118 45.3363 41.5836 45.0761 41.1204 44.6129L33.0001 36.4877L24.8799 44.6129C24.6505 44.8423 24.3783 45.0242 24.0786 45.1483C23.779 45.2724 23.4578 45.3363 23.1335 45.3363C22.8091 45.3363 22.488 45.2724 22.1883 45.1483C21.8887 45.0242 21.6164 44.8423 21.3871 44.6129C21.1577 44.3836 20.9758 44.1113 20.8517 43.8117C20.7276 43.512 20.6637 43.1909 20.6637 42.8665C20.6637 42.5422 20.7276 42.2211 20.8517 41.9214C20.9758 41.6218 21.1577 41.3495 21.3871 41.1201L29.5123 32.9999L21.3871 24.8796C20.9239 24.4164 20.6637 23.7882 20.6637 23.1332C20.6637 22.4782 20.9239 21.85 21.3871 21.3868C21.8502 20.9236 22.4784 20.6634 23.1335 20.6634C23.7885 20.6634 24.4167 20.9236 24.8799 21.3868L33.0001 29.512L41.1204 21.3868C41.3495 21.1571 41.6217 20.9748 41.9214 20.8505C42.2211 20.7261 42.5423 20.6621 42.8668 20.6621C43.1912 20.6621 43.5125 20.7261 43.8122 20.8505C44.1119 20.9748 44.3841 21.162 44.6132 21.3917Z" fill="#FF0000"/>
</svg>
